<svg xmlns="http://www.w3.org/2000/svg" viewBox="0 0 48 48" role="img" aria-labelledby="title desc">
  <title id="title">Brandkaart-logo</title>
  <desc id="desc">Rood schild met een witte vlam.</desc>
  <path fill="#ed3f24" d="M11 4h26a7 7 0 0 1 7 7v22.2a8 8 0 0 1-5.7 7.7L24 45 9.7 40.9A8 8 0 0 1 4 33.2V11a7 7 0 0 1 7-7Z"/>
  <path fill="#fff" fill-rule="evenodd" d="M25.2 9.3c.5 4-1.9 6.1-4.2 8.7-2.4 2.7-4.5 5.5-4.5 9.4a8.2 8.2 0 0 0 16.4 0c0-4.1-2.2-7.5-6.3-10.6.2 2.7-.6 4.9-2.5 6.5.2-4.7-.6-8.7 1.1-14Zm.2 15.2c.2 2.2-.8 3.7-2 5.1-.8.9-1.4 1.8-1.4 3a3.1 3.1 0 0 0 6.2 0c0-1.7-1-3.2-2.8-4.7.1-1.1.1-2.2 0-3.4Z"/>
</svg>
